Coordinates
version=1
nRows=19
nColumns=24
inDegrees=yes

Units are S.I. units (second, meters, Newtons, ...)
Angles are in degrees.

endheader
time	pelvis_tilt	pelvis_list	pelvis_rotation	pelvis_tx	pelvis_ty	pelvis_tz	hip_flexion_r	hip_adduction_r	hip_rotation_r	knee_angle_r	ankle_angle_r	subtalar_angle_r	mtp_angle_r	hip_flexion_l	hip_adduction_l	hip_rotation_l	knee_angle_l	ankle_angle_l	subtalar_angle_l	mtp_angle_l	lumbar_extension	lumbar_bending	lumbar_rotation
      2.14000000	     25.01539679	     -0.01603401	      3.98885318	      0.52595362	      0.84438188	     -0.03957024	    -33.27255514	      0.59557939	    -20.16813666	    -44.55972102	     21.77049365	      9.36246257	     53.27367387	     -6.35835097	      1.43957061	     -8.72154069	    -19.03772489	     12.84632309	      4.43564034	     46.27117021	    -37.92103161	     -0.10072835	    -11.91488399
      2.14500000	     24.96100301	      0.26238974	      3.84769974	      0.53195672	      0.84483742	     -0.03986648	    -32.42995904	     -0.11745765	    -20.23758370	    -46.77103841	     20.76071046	      8.31068395	     53.41141778	     -6.66659703	      1.77676272	     -8.61437506	    -19.33422750	     13.28474740	      4.37044651	     46.01889604	    -37.84861050	     -0.47780332	    -11.97178930
      2.15000000	     24.89706848	      0.52893854	      3.75476500	      0.53794119	      0.84532365	     -0.04023133	    -31.59224986	     -0.78547573	    -20.33167795	    -48.83672948	     19.80340978	      7.23157138	     53.41882964	     -6.97548023	      2.09518021	     -8.49218693	    -19.59611130	     13.68668154	      4.35058349	     45.73155299	    -37.76683354	     -0.81129616	    -12.07391047
      2.15500000	     24.84212905	      0.77198954	      3.67432184	      0.54388372	      0.84585119	     -0.04059991	    -30.76813001	     -1.40347858	    -20.38829083	    -50.75861258	     18.99409060	      6.09432277	     53.23993569	     -7.32140709	      2.38505836	     -8.39558824	    -19.78755439	     14.11222904	      4.38413035	     45.40791487	    -37.69494247	     -1.11103742	    -12.16302868
      2.16000000	     24.80338433	      1.02310623	      3.59449622	      0.54980746	      0.84642835	     -0.04097309	    -29.97207238	     -2.02402808	    -20.46360598	    -52.55481468	     18.41172944	      4.99016170	     52.95275374	     -7.71564688	      2.67831985	     -8.33769878	    -19.90665780	     14.47202089	      4.52998044	     45.21150683	    -37.64145586	     -1.41374830	    -12.23320011
      2.16500000	     24.74110114	      1.16735732	      3.53646945	      0.55565706	      0.84699420	     -0.04129114	    -29.13695203	     -2.48130056	    -20.41125645	    -54.20812820	     18.10422628	      3.96593471	     50.69726602	     -8.05707255	      2.83488505	     -8.34644593	    -20.09382553	     15.17705892	      4.95658535	     43.33054566	    -37.56296451	     -1.60681102	    -12.29825788
      2.17000000	     24.69284827	      1.30746185	      3.50295848	      0.56140839	      0.84762796	     -0.04168901	    -28.31904518	     -2.91629402	    -20.39571437	    -55.70439376	     17.80755745	      2.75076138	     50.34118635	     -8.45536709	      3.00212054	     -8.28198140	    -20.13109104	     15.57826443	      5.04966516	     43.19784764	    -37.51068786	     -1.77045663	    -12.36083352
      2.17500000	     24.65488927	      1.40337139	      3.50106303	      0.56713504	      0.84827869	     -0.04203800	    -27.52398413	     -3.26304896	    -20.38350881	    -57.06021016	     17.87221691	      1.71273548	     48.34174122	     -8.84175884	      3.08247796	     -8.31438589	    -20.23419293	     16.14904353	      5.58982670	     42.39338936	    -37.46790508	     -1.88059079	    -12.43387221
      2.18000000	     24.59364791	      1.46912797	      3.49089885	      0.57275697	      0.84893482	     -0.04240668	    -26.68388466	     -3.57368191	    -20.33789987	    -58.30053104	     18.04661306	      0.67042947	     46.88404910	     -9.21691364	      3.14835687	     -8.31949381	    -20.27008242	     16.61305462	      5.87263053	     41.79042226	    -37.40820192	     -1.95830201	    -12.46773715
      2.18500000	     24.53682064	      1.49098525	      3.48132528	      0.57830642	      0.84961623	     -0.04273864	    -25.83914223	     -3.81817302	    -20.26473132	    -59.40742830	     18.35773711	     -0.29741013	     45.45501465	     -9.59489610	      3.15569943	     -8.38390024	    -20.29351243	     17.08041732	      6.26087598	     41.28925750	    -37.35822851	     -1.99258204	    -12.47741373
      2.19000000	     24.46325124	      1.45640447	      3.48604941	      0.58371800	      0.85027545	     -0.04308623	    -24.95592442	     -3.98370750	    -20.17707762	    -60.38822293	     18.71885219	     -1.29684111	     44.71044150	     -9.92364167	      3.10522546	     -8.43578367	    -20.35429544	     17.53477842	      6.45539242	     41.09137896	    -37.30087107	     -1.96019894	    -12.44286356
      2.19500000	     24.35952742	      1.37765779	      3.50256824	      0.58909478	      0.85092357	     -0.04338617	    -24.03567854	     -4.07271945	    -20.07107353	    -61.23482622	     19.23764856	     -2.17165678	     43.59163027	    -10.21803428	      2.99272701	     -8.52403988	    -20.40376453	     18.00174055	      6.85138497	     40.81267666	    -37.21249379	     -1.88403522	    -12.42612727
      2.20000000	     24.30442446	      1.35663594	      3.53136133	      0.59446289	      0.85161780	     -0.04373394	    -23.19174976	     -4.22526796	    -20.06217583	    -61.98377402	     19.99428885	     -2.64713199	     41.16847084	    -10.60702623	      2.94336230	     -8.57635638	    -20.35928838	     18.44471968	      7.37932126	     39.98458814	    -37.18026157	     -1.84760797	    -12.47654707
      2.20500000	     24.16166368	      1.26457524	      3.53625883	      0.59968091	      0.85221499	     -0.04403355	    -22.20489694	     -4.29618913	    -19.96894814	    -62.62652805	     20.63060760	     -3.25784805	     40.90299269	    -10.87018589	      2.84044310	     -8.61567762	    -20.33056489	     18.76281164	      7.53738163	     39.89580212	    -37.06686094	     -1.75881039	    -12.44604431
      2.21000000	     24.09301416	      1.13168176	      3.57566455	      0.60488600	      0.85287972	     -0.04429908	    -21.32646926	     -4.27775801	    -19.91463207	    -63.10564205	     21.48076560	     -3.62961897	     38.88454074	    -11.18606474	      2.65447601	     -8.73533244	    -20.38524471	     19.29448932	      8.08037878	     39.09890424	    -37.03016364	     -1.61017726	    -12.43886534
      2.21500000	     23.91364637	      0.99882705	      3.60464550	      0.60999403	      0.85340243	     -0.04459827	    -20.29831022	     -4.27375422	    -19.85577189	    -63.51494760	     22.24310900	     -3.93412172	     38.72090410	    -11.38224842	      2.50688788	     -8.75534549	    -20.38522716	     19.59262878	      8.19398117	     39.02509327	    -36.88651010	     -1.46504877	    -12.43170925
      2.22000000	     23.75630291	      0.84169815	      3.63571593	      0.61504306	      0.85392308	     -0.04484036	    -19.29410371	     -4.21632986	    -19.78835615	    -63.80064548	     23.04440520	     -4.11731152	     38.41275420	    -11.57409304	      2.31746083	     -8.82018664	    -20.44760041	     19.96539361	      8.43772052	     38.93166806	    -36.77222584	     -1.29781463	    -12.44326814
      2.22500000	     23.64915946	      0.64770351	      3.67425805	      0.62012592	      0.85450043	     -0.04505141	    -18.37180974	     -4.09449121	    -19.75356596	    -63.94093655	     24.03132027	     -3.99939942	     35.92668939	    -11.84575680	      2.07823766	     -8.90483693	    -20.46333089	     20.46636905	      8.89227717	     37.83178252	    -36.70230755	     -1.08853724	    -12.39469143
      2.23000000	     23.47246521	      0.48303180	      3.70200296	      0.62514339	      0.85496240	     -0.04527790	    -17.36232091	     -4.01273481	    -19.72819580	    -63.99746369	     24.85020986	     -3.88259959	     35.90659885	    -12.02918319	      1.89615179	     -8.93767565	    -20.47251353	     20.74769161	      8.97967121	     37.77334058	    -36.56883378	     -0.91149096	    -12.40657181
